<?xml version="1.0" encoding="utf-8"?>
<svg viewBox="0 0 76 76" fill="#000000" xmlns="http://www.w3.org/2000/svg">
  <g style="" transform="matrix(2.1212120056152344, 0, 0, 2.1212120056152344, 3, 3)">
    <path d="M33,4.5v24c0,2.484-2.016,4.5-4.5,4.5h-24C2.016,33,0,30.984,0,28.5v-24C0,2.016,2.016,0,4.5,0h24&#10;&#9;&#9;C30.984,0,33,2.016,33,4.5z" style="stroke: rgb(24, 27, 35); stroke-width: 2.82857px;"/>
  </g>
  <g style="" transform="matrix(0.8484850525856018, 0, 0, 0.8484850525856018, 9, 9)">
    <path d="M33,4.5v24c0,2.484-2.016,4.5-4.5,4.5h-24C2.016,33,0,30.984,0,28.5v-24C0,2.016,2.016,0,4.5,0h24&#10;&#9;&#9;C30.984,0,33,2.016,33,4.5z" style="stroke-width: 0px; fill: rgb(68, 138, 255);"/>
    <path d="M33,4.5v24c0,2.484-2.016,4.5-4.5,4.5h-24C2.016,33,0,30.984,0,28.5v-24C0,2.016,2.016,0,4.5,0h24&#10;&#9;&#9;C30.984,0,33,2.016,33,4.5z" style="stroke-width: 0px; fill: rgb(68, 138, 255);"/>
  </g>
  <g style="" transform="matrix(0.8484850525856018, 0, 0, 0.8484850525856018, 39.00000000000001, 9)">
    <path d="M33,4.5v24c0,2.484-2.016,4.5-4.5,4.5h-24C2.016,33,0,30.984,0,28.5v-24C0,2.016,2.016,0,4.5,0h24&#10;&#9;&#9;C30.984,0,33,2.016,33,4.5z" style="fill: rgb(244, 67, 54); stroke-width: 0px;"/>
  </g>
  <g style="" transform="matrix(0.8484850525856018, 0, 0, 0.8484850525856018, 9, 39)">
    <path d="M33,4.5v24c0,2.484-2.016,4.5-4.5,4.5h-24C2.016,33,0,30.984,0,28.5v-24C0,2.016,2.016,0,4.5,0h24&#10;&#9;&#9;C30.984,0,33,2.016,33,4.5z" style="stroke-width: 0px; fill: rgb(221, 196, 0);"/>
    <path d="M33,4.5v24c0,2.484-2.016,4.5-4.5,4.5h-24C2.016,33,0,30.984,0,28.5v-24C0,2.016,2.016,0,4.5,0h24&#10;&#9;&#9;C30.984,0,33,2.016,33,4.5z" style="stroke-width: 0px; fill: rgb(221, 196, 0);"/>
  </g>
  <g style="" transform="matrix(0.8484850525856018, 0, 0, 0.8484850525856018, 39.00000000000001, 39)">
    <path d="M33,4.5v24c0,2.484-2.016,4.5-4.5,4.5h-24C2.016,33,0,30.984,0,28.5v-24C0,2.016,2.016,0,4.5,0h24&#10;&#9;&#9;C30.984,0,33,2.016,33,4.5z" style="stroke-width: 0px; fill: rgb(76, 175, 80);"/>
    <path d="M33,4.5v24c0,2.484-2.016,4.5-4.5,4.5h-24C2.016,33,0,30.984,0,28.5v-24C0,2.016,2.016,0,4.5,0h24&#10;&#9;&#9;C30.984,0,33,2.016,33,4.5z" style="stroke-width: 0px; fill: rgb(76, 175, 80);"/>
  </g>
  <g transform="matrix(0.026228999719023705, 0, 0, 0.026228999719023705, 11, 10.999972343444824)" style="">
    <g>
      <path d="M 190.63 0.001 C 85.516 0.001 0 85.516 0 190.628 C 0 295.741 85.516 381.256 190.63 381.256 C 295.743 381.256 381.257 295.741 381.257 190.628 C 381.257 85.516 295.743 0.001 190.63 0.001 Z M 190.63 350.005 C 102.748 350.005 31.25 278.511 31.25 190.628 C 31.25 102.747 102.748 31.251 190.63 31.251 C 278.511 31.251 350.007 102.747 350.007 190.628 C 350.007 278.511 278.511 350.005 190.63 350.005 Z" style="fill: rgb(255, 255, 255);"/>
      <path d="M 273.095 117.464 L 159.911 230.649 L 108.163 178.901 C 102.06 172.799 92.167 172.799 86.065 178.901 C 79.964 185.003 79.964 194.896 86.065 200.999 L 148.862 263.796 C 151.913 266.846 155.912 268.372 159.911 268.372 C 163.91 268.372 167.908 266.846 170.96 263.796 L 295.193 139.563 C 301.294 133.46 301.294 123.568 295.193 117.465 C 289.09 111.362 279.196 111.362 273.095 117.464 Z" style="fill: rgb(255, 255, 255);"/>
    </g>
  </g>
  <g transform="matrix(0.026228999719023705, 0, 0, 0.026228999719023705, 41.00000000000001, 40.99997329711914)" style="">
    <g>
      <path d="M 190.63 0.001 C 85.516 0.001 0 85.516 0 190.628 C 0 295.741 85.516 381.256 190.63 381.256 C 295.743 381.256 381.257 295.741 381.257 190.628 C 381.257 85.516 295.743 0.001 190.63 0.001 Z M 190.63 350.005 C 102.748 350.005 31.25 278.511 31.25 190.628 C 31.25 102.747 102.748 31.251 190.63 31.251 C 278.511 31.251 350.007 102.747 350.007 190.628 C 350.007 278.511 278.511 350.005 190.63 350.005 Z" style="fill: rgb(255, 255, 255);"/>
      <path d="M 273.095 117.464 L 159.911 230.649 L 108.163 178.901 C 102.06 172.799 92.167 172.799 86.065 178.901 C 79.964 185.003 79.964 194.896 86.065 200.999 L 148.862 263.796 C 151.913 266.846 155.912 268.372 159.911 268.372 C 163.91 268.372 167.908 266.846 170.96 263.796 L 295.193 139.563 C 301.294 133.46 301.294 123.568 295.193 117.465 C 289.09 111.362 279.196 111.362 273.095 117.464 Z" style="fill: rgb(255, 255, 255);"/>
    </g>
  </g>
</svg>