<?xml version="1.0" encoding="utf-8"?>
<svg viewBox="0 0 76 76" fill="#000000" xmlns="http://www.w3.org/2000/svg">
  <g style="" transform="matrix(2.1212120056152344, 0, 0, 2.1212120056152344, 3, 3.0000000000000036)">
    <path d="M33,4.5v24c0,2.484-2.016,4.5-4.5,4.5h-24C2.016,33,0,30.984,0,28.5v-24C0,2.016,2.016,0,4.5,0h24&#10;&#9;&#9;C30.984,0,33,2.016,33,4.5z" style="stroke: rgb(24, 27, 35); stroke-miterlimit: 1; stroke-width: 2.82857px;"/>
  </g>
  <g style="" transform="matrix(0.3939390182495117, 0, 0, 0.3939390182495117, 10, 9.750000000000004)">
    <path d="M 142.154 4.5 L 142.154 28.5 C 142.154 30.984 140.138 33 137.654 33 L 113.654 33 C 111.17 33 109.154 30.984 109.154 28.5 L 109.154 4.5 C 109.154 2.016 111.17 0 113.654 0 L 137.654 0 C 140.138 0 142.154 2.016 142.154 4.5 Z" style="stroke-width: 0px; fill: rgb(244, 67, 54);"/>
    <path d="M33,4.5v24c0,2.484-2.016,4.5-4.5,4.5h-24C2.016,33,0,30.984,0,28.5v-24C0,2.016,2.016,0,4.5,0h24&#10;&#9;&#9;C30.984,0,33,2.016,33,4.5z" style="stroke-width: 0px; fill: rgb(244, 67, 54);"/>
    <path d="M33,4.5v24c0,2.484-2.016,4.5-4.5,4.5h-24C2.016,33,0,30.984,0,28.5v-24C0,2.016,2.016,0,4.5,0h24&#10;&#9;&#9;C30.984,0,33,2.016,33,4.5z" style="stroke-width: 0px; fill: rgb(244, 67, 54);"/>
    <path d="M 142.154 4.501 L 142.154 28.499 C 142.154 30.984 140.138 33 137.653 33 L 113.655 33 C 111.169 33 109.154 30.984 109.154 28.499 L 109.154 4.501 C 109.154 2.016 111.169 0 113.655 0 L 137.653 0 C 140.138 0 142.154 2.016 142.154 4.501 Z" style="stroke-width: 0px; fill: rgb(244, 67, 54);"/>
    <rect x="15.274" width="115.292" height="33" style="stroke-width: 0px; fill: rgb(244, 67, 54);"/>
  </g>
  <g style="" transform="matrix(0.3939390182495117, 0, 0, 0.3939390182495117, 10, 24.250000000000004)">
    <path d="M33,4.5v24c0,2.484-2.016,4.5-4.5,4.5h-24C2.016,33,0,30.984,0,28.5v-24C0,2.016,2.016,0,4.5,0h24&#10;&#9;&#9;C30.984,0,33,2.016,33,4.5z" style="stroke-width: 0px; fill: rgb(68, 138, 255);"/>
    <path d="M33,4.5v24c0,2.484-2.016,4.5-4.5,4.5h-24C2.016,33,0,30.984,0,28.5v-24C0,2.016,2.016,0,4.5,0h24&#10;&#9;&#9;C30.984,0,33,2.016,33,4.5z" style="stroke-width: 0px; fill: rgb(68, 138, 255);"/>
    <path d="M 142.154 4.5 L 142.154 28.5 C 142.154 30.984 140.138 33 137.654 33 L 113.654 33 C 111.17 33 109.154 30.984 109.154 28.5 L 109.154 4.5 C 109.154 2.016 111.17 0 113.654 0 L 137.654 0 C 140.138 0 142.154 2.016 142.154 4.5 Z" style="stroke-width: 0px; fill: rgb(68, 138, 255);"/>
    <path d="M 142.154 4.5 L 142.154 28.5 C 142.154 30.984 140.138 33 137.654 33 L 113.654 33 C 111.17 33 109.154 30.984 109.154 28.5 L 109.154 4.5 C 109.154 2.016 111.17 0 113.654 0 L 137.654 0 C 140.138 0 142.154 2.016 142.154 4.5 Z" style="stroke-width: 0px; fill: rgb(68, 138, 255);"/>
    <rect x="15.274" width="115.292" height="33" style="stroke-width: 0px; fill: rgb(68, 138, 255);"/>
  </g>
  <g style="" transform="matrix(0.3939390182495117, 0, 0, 0.3939390182495117, 10, 38.75)">
    <path d="M33,4.5v24c0,2.484-2.016,4.5-4.5,4.5h-24C2.016,33,0,30.984,0,28.5v-24C0,2.016,2.016,0,4.5,0h24&#10;&#9;&#9;C30.984,0,33,2.016,33,4.5z" style="stroke-width: 0px; fill: rgb(221, 196, 0);"/>
    <path d="M33,4.5v24c0,2.484-2.016,4.5-4.5,4.5h-24C2.016,33,0,30.984,0,28.5v-24C0,2.016,2.016,0,4.5,0h24&#10;&#9;&#9;C30.984,0,33,2.016,33,4.5z" style="stroke-width: 0px; fill: rgb(221, 196, 0);"/>
    <path d="M 142.154 4.5 L 142.154 28.5 C 142.154 30.984 140.138 33 137.654 33 L 113.654 33 C 111.17 33 109.154 30.984 109.154 28.5 L 109.154 4.5 C 109.154 2.016 111.17 0 113.654 0 L 137.654 0 C 140.138 0 142.154 2.016 142.154 4.5 Z" style="stroke-width: 0px; fill: rgb(221, 196, 0);"/>
    <path d="M 142.154 4.5 L 142.154 28.5 C 142.154 30.984 140.138 33 137.654 33 L 113.654 33 C 111.17 33 109.154 30.984 109.154 28.5 L 109.154 4.5 C 109.154 2.016 111.17 0 113.654 0 L 137.654 0 C 140.138 0 142.154 2.016 142.154 4.5 Z" style="stroke-width: 0px; fill: rgb(221, 196, 0);"/>
    <rect x="15.274" width="115.292" height="33" style="stroke-width: 0px; fill: rgb(221, 196, 0);"/>
  </g>
  <g style="" transform="matrix(0.3939390182495117, 0, 0, 0.3939390182495117, 10, 53.25)">
    <path d="M33,4.5v24c0,2.484-2.016,4.5-4.5,4.5h-24C2.016,33,0,30.984,0,28.5v-24C0,2.016,2.016,0,4.5,0h24&#10;&#9;&#9;C30.984,0,33,2.016,33,4.5z" style="stroke-width: 0px; fill: rgb(76, 175, 80);"/>
    <path d="M33,4.5v24c0,2.484-2.016,4.5-4.5,4.5h-24C2.016,33,0,30.984,0,28.5v-24C0,2.016,2.016,0,4.5,0h24&#10;&#9;&#9;C30.984,0,33,2.016,33,4.5z" style="stroke-width: 0px; fill: rgb(76, 175, 80);"/>
    <path d="M 142.154 4.5 L 142.154 28.5 C 142.154 30.984 140.138 33 137.654 33 L 113.654 33 C 111.17 33 109.154 30.984 109.154 28.5 L 109.154 4.5 C 109.154 2.016 111.17 0 113.654 0 L 137.654 0 C 140.138 0 142.154 2.016 142.154 4.5 Z" style="stroke-width: 0px; fill: rgb(76, 175, 80);"/>
    <path d="M 142.154 4.5 L 142.154 28.5 C 142.154 30.984 140.138 33 137.654 33 L 113.654 33 C 111.17 33 109.154 30.984 109.154 28.5 L 109.154 4.5 C 109.154 2.016 111.17 0 113.654 0 L 137.654 0 C 140.138 0 142.154 2.016 142.154 4.5 Z" style="stroke-width: 0px; fill: rgb(76, 175, 80);"/>
    <rect x="15.274" width="115.292" height="33" style="stroke-width: 0px; fill: rgb(76, 175, 80);"/>
  </g>
  <path d="M 53 15.3 L 57.571 15.3 L 61 15.3 M 53 17.3 L 61 17.3" stroke-linecap="round" style="fill: rgb(255, 255, 255); stroke: rgb(255, 255, 255);"/>
  <path d="M 53 29.8 L 57.571 29.8 L 61 29.8 M 53 31.8 L 61 31.8" stroke-linecap="round" style="fill: rgb(255, 255, 255); stroke: rgb(255, 255, 255);"/>
  <path d="M 53 44.3 L 57.571 44.3 L 61 44.3 M 53 46.3 L 61 46.3" stroke-linecap="round" style="fill: rgb(255, 255, 255); stroke: rgb(255, 255, 255);"/>
  <path d="M 53 58.8 L 57.571 58.8 L 61 58.8 M 53 60.8 L 61 60.8" stroke-linecap="round" style="fill: rgb(255, 255, 255); stroke: rgb(255, 255, 255);"/>
</svg>